<svg xmlns="http://www.w3.org/2000/svg" viewBox="0 0 315 215" class="svg-logo" width="354.375" height="241.875" style="height: auto;"><rect rx="10" ry="10" width="100%" height="100%" fill="rgba(255, 243, 130, 1.0)"/><g data-element="wrapper" transform="translate(78.74999999999852 33.25000381469588) scale(0.5000000000000093)"><g data-element="container" transform="translate(81.30952768477184 31.30952380952381) scale(0.25396825396825395)"><g><path id="fill_x5F_1" fill="transparent" d="M90.362,178.966v242.068L300,542.068l209.638-121.034V178.966L300,57.932L90.362,178.966z"/>
<path id="frame_x5F_1_34_" d="M300,0L40.192,150v300L300,600l259.808-150V150L300,0z M531.432,433.617L300,567.234L68.569,433.617&#10;&#9;V166.383L300,32.766l231.432,133.617V433.617z M83.291,174.883v250.233L300,550.234l216.708-125.117V174.883L300,49.766&#10;&#9;L83.291,174.883z M501.575,416.379L300,532.758L98.425,416.379V183.621L300,67.242l201.575,116.379V416.379z" fill="rgba(17, 79, 8, 1.0)"/></g></g><g><g data-element="icon" transform="scale(0.1367502534228253) translate(854.0973556449636 488.46465778504495)"><path id="color_x5F_1" fill="rgba(17, 79, 8, 1.0)" d="M154.889,218.73v-56.899l74.172-42.821V47.006l72.521-41.87l0,0l72.523,41.87v54.003    l-72.523-41.871v-16.59l-40.121,23.164v34.591l40.121-23.164l146.693,84.692v56.899l-146.693-84.695V114.55l-114.295,65.988v19.485    L154.889,218.73z M438.43,546.941h-10.8c-11.928,0-21.6,9.672-21.6,21.6c0,11.929,9.672,21.6,21.6,21.6h10.8    c11.929,0,21.601-9.671,21.601-21.6C460.03,556.613,450.358,546.941,438.43,546.941z M49.639,417.346h10.8    c11.929,0,21.601-9.672,21.601-21.6c0-11.931-9.672-21.601-21.601-21.601h-10.8c-11.928,0-21.599,9.67-21.599,21.601    C28.04,407.674,37.711,417.346,49.639,417.346z M103.639,395.746c0-11.618,9.175-21.064,20.673-21.553    c0.309-0.015,0.614-0.048,0.926-0.048h16.004c-0.125-0.358-0.265-0.714-0.388-1.076c-3.784-11.076-7.037-22.363-9.735-33.822    c-6.298-26.739-9.582-54.414-9.582-82.556l180.046-103.951l180.047,103.951l0,0v0.002l0,0c0,40.595-6.85,80.21-19.704,117.452    h16.942h10.14c11.929,0,21.599,9.67,21.599,21.601c0,11.928-9.67,21.6-21.599,21.6H460.03c-11.931,0-21.601,9.67-21.601,21.599    c0,11.931,9.67,21.601,21.601,21.601h85.606c11.929,0,21.599,9.67,21.599,21.599c0,11.931-9.67,21.601-21.599,21.601H330.432    c-11.929,0-21.599,9.67-21.599,21.599s9.67,21.599,21.599,21.599h32.399c11.931,0,21.599,9.672,21.599,21.6    c0,11.929-9.668,21.6-21.599,21.6H211.635c-11.93,0-21.6-9.671-21.6-21.6c0-11.928,9.67-21.6,21.6-21.6h21.6    c11.93,0,21.601-9.67,21.601-21.599s-9.671-21.599-21.601-21.599H82.039c-11.93,0-21.601-9.67-21.601-21.601    c0-11.929,9.671-21.599,21.601-21.599h75.597c11.93,0,21.601-9.67,21.601-21.601c0-11.929-9.671-21.599-21.601-21.599h-32.398    C113.309,417.346,103.639,407.674,103.639,395.746z M175.863,374.146h125.719V190.152l-147.126,84.944    C156.399,309.379,163.767,342.755,175.863,374.146z"/></g><text transform="translate(-40.09375 244.69046020507812)" fill="rgba(17, 79, 8, 1.0)" font-family="Kenia" font-size="64" data-element="company-name" dx="0 0 0 0 0 0 0 0 0 0 0 0 0 0 0 0">freight research</text></g></g></svg>