<svg xmlns="http://www.w3.org/2000/svg" viewBox="0 0 315 215" class="svg-logo" width="354.375" height="241.875" style="height: auto;"><rect rx="10" ry="10" width="100%" height="100%" fill="rgba(193, 250, 145, 1.0)"/><g data-element="wrapper" transform="translate(102.37499465942236 69.87500400543112) scale(0.35000000000000936)"><g><g data-element="icon" transform="scale(0.1445912626443639) translate(-766.7514177658978 445.83606854607075)"><path id="color_x5F_2" fill="rgba(8, 64, 79, 1.0)" d="M491.279,72.202h-99.756V42.166h129.793v194.753c0,52.583-10.71,103.801-30.52,150.941    c-2.404,0.243-4.816,0.408-7.25,0.408c-8.127,0-16.109-1.404-23.889-4.096c20.486-45.672,31.621-95.753,31.621-147.254V72.202z     M244.018,528.971l5.195-3.151l5.194,3.151c13.682,8.302,28.229,12.513,43.231,12.513c15.001,0,29.547-4.211,43.23-12.513    l5.193-3.151l5.196,3.151c8.441,5.121,17.211,8.674,26.213,10.653c11.813-9.65,22.982-19.962,33.512-30.845    c-5.852,1.091-11.785,1.656-17.793,1.656c-16.587,0-32.629-4.172-47.775-12.41c-15.146,8.238-31.189,12.41-47.776,12.41    c-16.586,0-32.63-4.172-47.776-12.41c-15.145,8.238-31.187,12.41-47.774,12.41c-6.01,0-11.943-0.565-17.793-1.656    c10.527,10.883,21.697,21.194,33.51,30.845C226.806,537.645,235.577,534.092,244.018,528.971z M159.556,477.928    c13.467,8.284,27.776,12.483,42.531,12.483s29.063-4.199,42.528-12.483l5.247-3.227l5.245,3.227    c13.465,8.284,27.778,12.483,42.532,12.483c14.753,0,29.066-4.199,42.531-12.483l5.245-3.227l5.244,3.227    c13.467,8.284,27.774,12.483,42.531,12.483c14.754,0,29.063-4.199,42.529-12.483l4.163-2.56    c5.322-6.913,10.417-13.991,15.261-21.234c-5.475-1.883-10.858-4.247-16.125-7.146c-14.938,8.217-30.764,12.377-47.125,12.377    c-16.363,0-32.189-4.16-47.129-12.377c-14.938,8.217-30.764,12.377-47.126,12.377c-16.363,0-32.187-4.16-47.126-12.377    c-14.94,8.217-30.764,12.377-47.129,12.377c-16.361,0-32.188-4.16-47.125-12.377c-5.269,2.898-10.652,5.263-16.125,7.146    c4.844,7.243,9.938,14.321,15.261,21.234L159.556,477.928z M135.617,384.173c-20.486-45.672-31.621-95.753-31.621-147.254V72.202    h99.753V42.166H73.958v194.753c0,52.583,10.708,103.801,30.519,150.941c2.403,0.243,4.817,0.408,7.249,0.408    C119.854,388.269,127.837,386.864,135.617,384.173z M150.96,426.891l5.298-3.303l5.298,3.303    c13.247,8.262,27.32,12.448,41.827,12.448c14.507,0,28.582-4.187,41.83-12.448l5.299-3.303l5.298,3.303    c13.248,8.262,27.32,12.448,41.828,12.448c14.509,0,28.582-4.187,41.828-12.448l5.298-3.303l5.299,3.303    c13.248,8.262,27.322,12.448,41.83,12.448c14.507,0,28.58-4.187,41.828-12.448l5.297-3.303l5.298,3.303    c7.071,4.409,14.38,7.619,21.862,9.689c5.498-9.24,10.638-18.688,15.362-28.352c-15.426-0.33-30.354-4.421-44.47-12.272    c-14.727,8.191-30.334,12.337-46.477,12.337c-16.145,0-31.75-4.146-46.478-12.337c-14.729,8.191-30.337,12.337-46.479,12.337    c-16.143,0-31.75-4.146-46.477-12.337c-14.729,8.191-30.334,12.337-46.479,12.337c-16.142,0-31.749-4.146-46.476-12.337    c-14.114,7.851-29.043,11.94-44.471,12.271c4.725,9.664,9.864,19.112,15.363,28.353C136.578,434.51,143.891,431.3,150.96,426.891z     M346.062,549.061c-15.352,8.26-31.614,12.447-48.424,12.447s-33.073-4.188-48.425-12.447c-3.911,2.104-7.883,3.938-11.905,5.51    c10.255,7.348,20.905,14.239,31.949,20.615l28.381,16.385l28.38-16.385c11.045-6.376,21.696-13.268,31.949-20.615    C353.945,552.998,349.973,551.164,346.062,549.061z"/> <path id="color_x5F_1" fill="rgba(8, 64, 79, 1.0)" d="M257.034,27.148l40.604-23.441l0,0l0,0l40.602,23.441l26.012,15.018h0.618v0.356v50.064    l-67.231-38.816V38.39L260.44,59.866v32.068l37.197-21.475l135.995,78.517v52.749l-135.995-78.518l0,0v-18.064l-105.959,61.175    v18.065l-30.038,17.342v-52.749l68.764-39.7v-7.32V42.522v-0.356h0.62L257.034,27.148z M139.604,313.452    c2.502,10.624,5.517,21.089,9.027,31.358c2.339,6.847,4.896,13.607,7.67,20.271c1.189,2.864,2.438,5.7,3.708,8.527l3.548,2.245    c11.969,7.567,24.629,11.665,37.669,12.286c-23.282-40.537-37.281-86.412-39.988-134.16l136.399-78.748V367.84v16.688v3.741l0,0    c14.265,0,28.1-4.179,41.127-12.414l5.352-3.388l5.35,3.388c13.026,8.235,26.862,12.414,41.128,12.414    c14.262,0,28.1-4.179,41.125-12.414l3.547-2.245c18.994-42.308,29.289-88.764,29.289-136.69l0,0v-0.001l0,0l-166.917-96.371    L130.72,236.918C130.72,263.008,133.765,288.664,139.604,313.452z"/></g><text transform="translate(-20.171875 129)" fill="rgba(8, 64, 79, 1.0)" font-family="New Rocker" font-size="64" data-element="company-name" dx="0 0 0 0 0 0 0 0 0 0 0 0 0 0 0 0">freight research</text></g></g></svg>